<svg id="Layer_1" data-name="Layer 1" xmlns="http://www.w3.org/2000/svg" viewBox="0 0 2000 2000"><defs><style>.cls-1{fill:#e51d39;}.cls-2{fill:#e61c40;}.cls-3{fill:#fff;}.cls-4{fill:#373737;}</style></defs><title>EGZONI_LARGE_COLOR</title><path class="cls-1" d="M605,1046.92c-1,8.49-23.36,15.39-50,15.39s-47.42-6.9-46.45-15.39c.75-6.53,15.8-11.81,33.62-11.81,16.06,0,28.88,4.29,30.72,9.9l4.36-38c1.19.54,2.36,1.1,3.48,1.69.56.29,1.1.58,1.64.89l.07,0,1.45.85a2.16,2.16,0,0,1,.3.18q.72.42,1.41.87c.51.33,1,.67,1.52,1s1,.69,1.47,1l.13.09c.44.33.86.66,1.28,1s.82.66,1.22,1l.27.23c.33.27.64.55,1,.83l.32.3c.39.36.78.72,1.15,1.09s.67.67,1,1l.37.38c.32.35.64.7,1,1.06s.73.85,1.07,1.27.68.86,1,1.3.65.88,1,1.33.49.73.72,1.1l.3.49c.19.32.38.64.56,1s.49.87.71,1.31c.45.88.86,1.76,1.23,2.66l0,0c.36.9.69,1.8,1,2.72.15.47.28.93.4,1.41.19.7.35,1.42.48,2.13a4.54,4.54,0,0,1,.09.51c.11.55.18,1.11.25,1.67,0,.21,0,.42.07.63s0,.57.07.85,0,.68.06,1,0,.79,0,1.19c0,.23,0,.46,0,.69s0,.54,0,.81,0,.71-.07,1.06S605.05,1046.51,605,1046.92Z"/><path class="cls-1" d="M1212.7,922.66a42.86,42.86,0,0,0-6.45-16.43A31.14,31.14,0,0,0,1194,895.69a39.41,39.41,0,0,0-17.52-3.7,43.7,43.7,0,0,0-18.5,3.82,44.64,44.64,0,0,0-14.53,10.65,56.1,56.1,0,0,0-10.23,16.44,78,78,0,0,0-5.32,21.19,70.84,70.84,0,0,0,.45,21.3,42.64,42.64,0,0,0,6.47,16.32,31,31,0,0,0,12.1,10.53,39.19,39.19,0,0,0,17.64,3.71,45.11,45.11,0,0,0,18.37-3.71,42.93,42.93,0,0,0,14.63-10.53,56.34,56.34,0,0,0,10.21-16.32,77.86,77.86,0,0,0,5.34-21.3A72.47,72.47,0,0,0,1212.7,922.66Zm0,0a42.86,42.86,0,0,0-6.45-16.43A31.14,31.14,0,0,0,1194,895.69a39.41,39.41,0,0,0-17.52-3.7,43.7,43.7,0,0,0-18.5,3.82,44.64,44.64,0,0,0-14.53,10.65,56.1,56.1,0,0,0-10.23,16.44,78,78,0,0,0-5.32,21.19,70.84,70.84,0,0,0,.45,21.3,42.64,42.64,0,0,0,6.47,16.32,31,31,0,0,0,12.1,10.53,39.19,39.19,0,0,0,17.64,3.71,45.11,45.11,0,0,0,18.37-3.71,42.93,42.93,0,0,0,14.63-10.53,56.34,56.34,0,0,0,10.21-16.32,77.86,77.86,0,0,0,5.34-21.3A72.47,72.47,0,0,0,1212.7,922.66Zm-566.83-129-29,253.22c-.78,6.85-5.74,16.24-24.89,22.14-10.62,3.27-24.21,5.07-38.28,5.07s-27.24-1.8-37.1-5.07c-17.81-5.9-20.6-15.29-19.82-22.14.57-4.92,3.85-14,19.45-19.46a71.57,71.57,0,0,1,12.43-3,96.3,96.3,0,0,1,14.92-1.14,91.31,91.31,0,0,1,14.67,1.14c1.77.28,3.48.63,5.11,1l2.58-22.51q-3.45-.95-7.11-1.6c-1.07-.19-2.15-.37-3.24-.53h0l-1.54-.2-.28,0-1.45-.17h-.09l-1.63-.16c-.57-.06-1.14-.1-1.71-.13l-1.42-.1-.49,0-1.55-.07-1.32,0-2.2,0c-26,0-49.76,9.94-63.06,24.57-6.07,6.68-10,14.34-10.91,22.49-3,26,25.31,47.06,63.18,47.06h976.63L1542.1,793.7Zm125.31,230.73H657.49L675.89,864H784.26l-3.48,30.33H708.53l-3.61,31.49h64.14l-3.4,29.64H701.52l-4.43,38.67h77.57Zm152.73-5.32q-6.76,2.53-21.46,5.44t-35.76,2.89q-18.06,0-32.13-5.56a58.47,58.47,0,0,1-23.26-16.21q-9.19-10.63-13.09-26.16t-1.61-35.42q2.31-20.16,10.34-35.66a90,90,0,0,1,20.15-26.28,83.83,83.83,0,0,1,27.46-16.32,93.08,93.08,0,0,1,32-5.56,124,124,0,0,1,20.31,1.5,120.14,120.14,0,0,1,15.35,3.47,67,67,0,0,1,10.42,4,65,65,0,0,1,5.76,3.25l-13.73,28.94a84.2,84.2,0,0,0-16.24-6.83,69,69,0,0,0-20.62-2.89q-25.24,0-38.08,14t-15.62,38.32a75,75,0,0,0,.32,21.41,41.59,41.59,0,0,0,6.44,16.56,31.9,31.9,0,0,0,12.66,10.77q7.89,3.81,19,3.81,6,0,10.33-.22a50.76,50.76,0,0,0,7.64-.94l6.4-55.79H933Zm145.26,5.32H943l2.47-21.53q7.83-11.8,18.88-26.28t22.9-29.17q11.88-14.72,24-28.49t22.39-24.66h-72L965.09,864H1085l-2.86,25q-8.29,7.66-19.88,19.8t-24.12,26.52q-12.54,14.36-24.94,29.63T990.88,994.1h81.77Zm170.95-44.11a87.19,87.19,0,0,1-19.78,26.16,80,80,0,0,1-27.17,15.87,97.44,97.44,0,0,1-32.22,5.32,84.68,84.68,0,0,1-30.41-5.32,61,61,0,0,1-23.66-15.87q-9.68-10.51-14.13-26.16t-2.1-36.23q2.37-20.61,10.65-36.24a90.33,90.33,0,0,1,20.49-26.28,83.62,83.62,0,0,1,27.3-16,92.61,92.61,0,0,1,31.06-5.32,84.68,84.68,0,0,1,30.41,5.32,60.55,60.55,0,0,1,23.64,16,64.91,64.91,0,0,1,14.12,26.28q4.46,15.61,2.1,36.24T1240.12,980.32Zm165.71,44.11h-30.34q-12.35-27.54-27.33-54.41a469.35,469.35,0,0,0-32.62-50.71l-12,105.12h-35.66L1286.23,864h29.4q6.76,7.65,14.76,18.76t16.14,23.73q8.17,12.62,16.11,26.16t14.84,26l10.86-94.7h35.89Zm69.69,0H1439.4L1457.8,864h36.12Zm-269.27-118.2A31.14,31.14,0,0,0,1194,895.69a39.41,39.41,0,0,0-17.52-3.7,43.7,43.7,0,0,0-18.5,3.82,44.64,44.64,0,0,0-14.53,10.65,56.1,56.1,0,0,0-10.23,16.44,78,78,0,0,0-5.32,21.19,70.84,70.84,0,0,0,.45,21.3,42.64,42.64,0,0,0,6.47,16.32,31,31,0,0,0,12.1,10.53,39.19,39.19,0,0,0,17.64,3.71,45.11,45.11,0,0,0,18.37-3.71,42.93,42.93,0,0,0,14.63-10.53,56.34,56.34,0,0,0,10.21-16.32,77.86,77.86,0,0,0,5.34-21.3,72.47,72.47,0,0,0-.44-21.43A42.86,42.86,0,0,0,1206.25,906.23Zm6.45,16.43a42.86,42.86,0,0,0-6.45-16.43A31.14,31.14,0,0,0,1194,895.69a39.41,39.41,0,0,0-17.52-3.7,43.7,43.7,0,0,0-18.5,3.82,44.64,44.64,0,0,0-14.53,10.65,56.1,56.1,0,0,0-10.23,16.44,78,78,0,0,0-5.32,21.19,70.84,70.84,0,0,0,.45,21.3,42.64,42.64,0,0,0,6.47,16.32,31,31,0,0,0,12.1,10.53,39.19,39.19,0,0,0,17.64,3.71,45.11,45.11,0,0,0,18.37-3.71,42.93,42.93,0,0,0,14.63-10.53,56.34,56.34,0,0,0,10.21-16.32,77.86,77.86,0,0,0,5.34-21.3A72.47,72.47,0,0,0,1212.7,922.66Zm0,0a42.86,42.86,0,0,0-6.45-16.43A31.14,31.14,0,0,0,1194,895.69a39.41,39.41,0,0,0-17.52-3.7,43.7,43.7,0,0,0-18.5,3.82,44.64,44.64,0,0,0-14.53,10.65,56.1,56.1,0,0,0-10.23,16.44,78,78,0,0,0-5.32,21.19,70.84,70.84,0,0,0,.45,21.3,42.64,42.64,0,0,0,6.47,16.32,31,31,0,0,0,12.1,10.53,39.19,39.19,0,0,0,17.64,3.71,45.11,45.11,0,0,0,18.37-3.71,42.93,42.93,0,0,0,14.63-10.53,56.34,56.34,0,0,0,10.21-16.32,77.86,77.86,0,0,0,5.34-21.3A72.47,72.47,0,0,0,1212.7,922.66Z"/><path class="cls-2" d="M635.74,778.92l-27.18,237c-.2-.28-.4-.55-.61-.82s-.4-.54-.61-.8c-.53-.68-1.08-1.35-1.66-2q-.33-.39-.69-.78c-.4-.44-.81-.87-1.22-1.3s-.64-.66-1-1a56.54,56.54,0,0,0-4.59-4.06l-.74-.57c-.3-.25-.61-.47-.93-.71C582.81,993.66,563.87,988,543.19,988s-40.92,5.63-57,15.86a77.79,77.79,0,0,0-14.77,12l27.18-237c3-26,36.1-47.07,74-47.07S638.72,752.92,635.74,778.92Z"/><path class="cls-3" d="M601.55,1028.29c.45.88.86,1.76,1.23,2.66C602.41,1030.05,602,1029.16,601.55,1028.29Zm1.25,2.71c.36.9.69,1.8,1,2.72C603.5,1032.8,603.17,1031.9,602.8,1031Z"/><path class="cls-4" d="M505.35,1164.1a14.13,14.13,0,0,1,3.68,11.45,19.25,19.25,0,0,1-2.37,7.08c-2.89,5.2-8.35,8.32-11.31,9.68a33.46,33.46,0,0,1-14,3,32.89,32.89,0,0,1-8.5-1.15,79.91,79.91,0,0,1-10-3.64,1.85,1.85,0,0,0-1.94.62h-3l2.19-19.05h3.33l.19,1c1.53,8.44,4.78,13.64,9.82,16a18.27,18.27,0,0,0,5.75,1.57,15.84,15.84,0,0,0,2.18.1c5,0,11.44-1.77,14.71-6.66,3.77-5.62,1.28-11.14-2.87-14a28.71,28.71,0,0,0-7.5-3.54l-2.8-1c-6.59-2.4-14-5.1-17.8-10.83-3.64-5.51-2.22-14.26,3.23-20a25.41,25.41,0,0,1,6.14-4.58,28.86,28.86,0,0,1,14-3.33h.1a43.19,43.19,0,0,1,12.58,2c.8.32,2.9,1,2.9,1a1.85,1.85,0,0,0,1.94-.63h3l-.51,4.48-1.49,13H503.7l-.21-.94a34.11,34.11,0,0,0-4.63-10.41,11,11,0,0,0-7-3.75,18.79,18.79,0,0,0-4-.41,16.35,16.35,0,0,0-3.9.41c-4.17,1.05-8.94,4.48-9.54,9.68-.9,7.92,8.69,11.35,12.8,12.81l1.5.52c6.2,2.18,12.61,4.37,17.15,9.26Z"/><path class="cls-4" d="M532.34,1194.7H513.29l.4-3.54h1.67c3,0,5.44-2.08,7.85-6.76L550.6,1128h5.31l.32.83L574,1184.4c1.31,3.95,3,6,5.27,6.66h3l-.41,3.54H556.08l.41-3.54h2.91a3.17,3.17,0,0,0,2.09-.94c.61-.83.67-2.29.09-4.47l-4.75-15.72H535.18l-6.57,13.74c-1.4,3.12-1.73,5.1-1,6.14.36.52,1,1.14,3.3,1.14h1.77Zm5-29h18.22l-7.13-23.21Z"/><path class="cls-4" d="M619.78,1190.12c7.8,0,12-2.29,15.08-8.12l1.06-2h3l-1.67,14.58H589.08l.4-3.54H591a3.94,3.94,0,0,0,2.82-.94c1.15-.94,1.89-2.91,2.24-5.93l5.28-46c.35-3.12,0-5-.87-6a3.14,3.14,0,0,0-2.5-.93h-1.77l.41-3.54H620l-.4,3.54h-1.77a4.18,4.18,0,0,0-2.59.83c-1.16,1-1.91,3-2.26,6l-6,52h12.81Z"/><path class="cls-4" d="M676.82,1190.12c7.8,0,12-2.29,15.08-8.12l1.06-2h3l-1.67,14.58H646.12l.4-3.54h1.57a3.93,3.93,0,0,0,2.81-.94c1.15-.94,1.89-2.91,2.24-5.93l5.28-46c.35-3.12.05-5-.87-6a3.14,3.14,0,0,0-2.5-.93h-1.77l.41-3.54H677l-.4,3.54h-1.77a4.18,4.18,0,0,0-2.59.83c-1.16,1-1.91,3-2.26,6l-6,52h12.81Z"/><path class="cls-4" d="M707.88,1160.66a38.51,38.51,0,0,1,37.93-33.93,28,28,0,0,1,21.89,9.68c5.72,6.46,8,14.57,6.91,24.15A38.5,38.5,0,0,1,762,1185.33a36.1,36.1,0,0,1-24.87,9.89c-9.36,0-16.9-3.23-22.53-9.57s-7.89-14.68-6.73-24.78Zm21.74-23.41c-5,5.2-8,13-9.21,23.1-1.19,10.41.16,18.53,4.11,24.05,3,4.16,7.4,6.24,13.13,6.24a21.59,21.59,0,0,0,15.88-6.87c4.48-4.58,7.3-12,8.45-22,1.24-10.83-.1-19-4-24.46-3-4.16-7.61-6.25-13.75-6.25a19.38,19.38,0,0,0-14.67,6.25Z"/><path class="cls-4" d="M835.31,1132.35a3.14,3.14,0,0,0-2.5-.93H831l.41-3.54H848l-.41,3.54h-1.77a4.27,4.27,0,0,0-2.69.83c-.8.62-1.77,2.7-2.25,5.93l-6.47,56.42h-5.2l-3.48-5.94-30.48-49.23-5.13,44.76c-.34,3,0,4.89.88,5.93a3.11,3.11,0,0,0,2.5.94h1.77l-.41,3.54H778.42l.4-3.54h1.56a3.94,3.94,0,0,0,2.82-.94c1.16-1,1.9-3,2.25-6l5.28-46c.35-3.13,0-5-.87-6a3.14,3.14,0,0,0-2.5-.94h-1.77l.41-3.54h15.92l.35.63,29.47,48,4.38-38.2c.35-3,0-4.89-.88-5.93Z"/><path class="cls-4" d="M856.84,1184.19l5.28-46c.36-3.12,0-5-.87-6a3.11,3.11,0,0,0-2.49-.93H857l.4-3.54h23.32l-.41,3.54h-1.77a4.18,4.18,0,0,0-2.59.83c-1.16,1-1.91,3-2.26,6l-5.27,46c-.35,3,0,5,.87,6a3.09,3.09,0,0,0,2.49.94h1.77l-.4,3.54H849.82l.41-3.54h1.56a3.9,3.9,0,0,0,2.81-.94C855.75,1189.18,856.5,1187.21,856.84,1184.19Z"/><path class="cls-4" d="M940.42,1184.19l5.28-46c.36-3.12,0-5-.87-6a3.11,3.11,0,0,0-2.49-.93h-1.77l.4-3.54h23.32l-.41,3.54h-1.77a4.18,4.18,0,0,0-2.59.83c-1.16,1-1.91,3-2.25,6l-5.28,46c-.35,3,0,5,.87,6a3.09,3.09,0,0,0,2.49.94h1.77l-.4,3.54H933.4l.41-3.54h1.56a3.9,3.9,0,0,0,2.81-.94C939.33,1189.18,940.08,1187.21,940.42,1184.19Z"/><path class="cls-4" d="M1024.83,1142.55h-3.54l1.7-14.88h63l-1.72,15h-3.54l-.61-2c-1.79-6.14-5.56-8.64-13.16-8.64h-7.08l-6,52q-.51,4.53.88,5.94a3.14,3.14,0,0,0,2.5.93H1059l-.41,3.54h-23.31l.4-3.54h1.67a4,4,0,0,0,2.81-.93c1.16-1,1.9-2.92,2.25-6l6-52h-7.08c-7.49,0-12.06,2.6-15.25,8.64Z"/><path class="cls-4" d="M1090.35,1190.23c1.16-1,1.91-3,2.25-6l5.28-46c.36-3.12,0-5-.87-6a3.14,3.14,0,0,0-2.5-.93h-1.77l.41-3.54h46.53l-1.53,13.32h-3.54l-.31-.93c-1.63-5.73-5.73-8.12-13.64-8.12h-10.51l-2.77,24.15h7.8c6.46,0,9.72-1.25,11.67-4.58l.76-1.25h3.54l-1.93,16.86h-3.54l-.47-1.36c-1.22-3.85-4.07-5.3-10.63-5.3h-7.81l-3.4,29.66h12.49c5.41,0,9.08-1.14,11.88-3.75.58-.52,1.79-2,3.88-5.72l.39-.63h3.54l-1.67,14.58h-48.51l.41-3.54h1.77a3.84,3.84,0,0,0,2.71-.94Z"/><path class="cls-4" d="M1166.58,1194.39h-23.31l.4-3.54h1.67a4.2,4.2,0,0,0,2.92-.94c1.15-.93,1.89-2.91,2.24-5.93l5.27-46c.35-3,.06-5-.86-6a3.11,3.11,0,0,0-2.5-.94h-1.77l.41-3.54h29.66c8.54,0,15,2.19,18.54,6.25,2.67,3,3.78,7,3.24,11.65a18.83,18.83,0,0,1-8.78,14c-5,3.23-11.8,4.89-19.81,4.89h-9.68L1162,1184c-.36,3.12,0,5,.87,6a3.11,3.11,0,0,0,2.49.93h1.77Zm-1.87-34.45h9.68a15.64,15.64,0,0,0,10.72-3.65,16.76,16.76,0,0,0,5.09-10.82c1-8.85-2.51-13.53-10.11-13.53h-12.17Z"/><path class="cls-4" d="M1212.41,1184.19l5.27-46c.36-3.12.06-5-.87-6a3.11,3.11,0,0,0-2.49-.93h-1.77l.41-3.54h23.31l-.4,3.54h-1.77a4.21,4.21,0,0,0-2.6.83c-1.16,1-1.91,3-2.25,6l-5.28,46c-.34,3,0,5,.87,6a3.09,3.09,0,0,0,2.5.94h1.77l-.41,3.54h-23.32l.41-3.54h1.56a3.94,3.94,0,0,0,2.82-.94C1211.31,1189.18,1212.06,1187.21,1212.41,1184.19Z"/><path class="cls-4" d="M1264.38,1132.14c-1.16,1-1.91,3-2.25,6l-2,17h32.37l2-17c.35-3,0-5-.87-6a3.11,3.11,0,0,0-2.49-.93h-1.77l.4-3.54h23.32l-.41,3.54h-1.77a3.88,3.88,0,0,0-2.71.93c-1.15.94-1.89,2.92-2.24,5.94l-5.28,46c-.34,3,0,5,.87,6a3.11,3.11,0,0,0,2.5.94h1.77l-.41,3.54H1282.1l.4-3.54h1.77a3.8,3.8,0,0,0,2.71-.94c1.16-1,1.9-2.91,2.26-6l2.82-24.66h-32.37l-2.83,24.66c-.34,3,0,5,.87,6a3.11,3.11,0,0,0,2.5.94H1262l-.41,3.54h-23.31l.4-3.54h1.56a3.94,3.94,0,0,0,2.82-.94c1.15-.94,1.89-2.91,2.24-5.93l5.27-46c.36-3.12.06-5-.86-6a3.14,3.14,0,0,0-2.5-.93h-1.77l.41-3.54h23.31l-.4,3.54H1267a4.23,4.23,0,0,0-2.6.83Z"/><path class="cls-4" d="M1333,1194.7h-19l.4-3.54H1316c3,0,5.44-2.08,7.85-6.76l27.39-56.42h5.31l.32.83,17.78,55.59c1.31,3.95,2.95,6,5.27,6.66h3l-.41,3.54h-25.81l.41-3.54h2.91a3.17,3.17,0,0,0,2.09-.94c.61-.83.67-2.29.09-4.47l-4.75-15.72h-21.65l-6.57,13.74c-1.4,3.12-1.73,5.1-1,6.14.36.52,1,1.14,3.3,1.14h1.77Zm5-29h18.22l-7.13-23.21Z"/><path class="cls-4" d="M1398.25,1131.21a3.28,3.28,0,0,0-2.73,1c-1,1.14-1.09,3.23-.38,6l12.36,42,19.34-41.64c1.19-3.12,1.43-5.2.73-6.35-.54-.73-1.53-1.14-3.2-1.14h-2.18l.4-3.54h19.15l-.4,3.54h-2.19c-2.81,0-4.69,1.87-7,6.87L1406,1194.6h-6.24l-.31-.94-16.3-55.69c-1.64-4.78-3.18-6.76-5.47-6.76h-1.57l.41-3.54h24l-.4,3.54h-1.87Z"/><path class="cls-4" d="M1446,1190.23c1.16-1,1.91-3,2.25-6l5.28-46c.36-3.12,0-5-.87-6a3.11,3.11,0,0,0-2.49-.93h-1.77l.4-3.54h46.53l-1.53,13.32h-3.54l-.31-.93c-1.63-5.73-5.73-8.12-13.64-8.12h-10.51l-2.77,24.15h7.81c6.45,0,9.72-1.25,11.66-4.58l.77-1.25h3.54l-1.94,16.86h-3.54l-.47-1.36c-1.22-3.85-4.07-5.3-10.63-5.3h-7.81l-3.4,29.66h12.49c5.42,0,9.09-1.14,11.88-3.75.58-.52,1.79-2,3.89-5.72l.38-.63h3.54l-1.67,14.58H1441l.41-3.54h1.77a3.84,3.84,0,0,0,2.71-.94Z"/><path class="cls-4" d="M850.06,1250.09a8.15,8.15,0,0,1,2.13,6.62,11,11,0,0,1-1.37,4.09,14.43,14.43,0,0,1-6.54,5.6,19.43,19.43,0,0,1-8.08,1.75,18.66,18.66,0,0,1-4.92-.67,44.44,44.44,0,0,1-5.78-2.1,1.08,1.08,0,0,0-1.13.36h-1.74l1.26-11h1.93l.11.61c.88,4.87,2.77,7.88,5.68,9.26a10.38,10.38,0,0,0,3.32.91,8.86,8.86,0,0,0,1.26.06c2.89,0,6.62-1,8.51-3.85,2.18-3.25.74-6.44-1.66-8.13a17.12,17.12,0,0,0-4.34-2l-1.61-.6c-3.82-1.38-8.09-3-10.3-6.26s-1.28-8.24,1.87-11.55a14.56,14.56,0,0,1,3.55-2.65,16.65,16.65,0,0,1,8.11-1.93h.06a24.81,24.81,0,0,1,7.27,1.15c.46.18,1.67.6,1.67.6a1.08,1.08,0,0,0,1.13-.36h1.75l-.3,2.58L851,1240h-1.93l-.12-.54a19.48,19.48,0,0,0-2.68-6,6.3,6.3,0,0,0-4-2.17,10.82,10.82,0,0,0-2.32-.24,9.38,9.38,0,0,0-2.26.24c-2.42.6-5.17,2.59-5.52,5.6-.52,4.57,5,6.56,7.4,7.4l.87.3c3.59,1.27,7.29,2.53,9.92,5.36Z"/><path class="cls-4" d="M861.25,1261.71l3-26.61c.21-1.8,0-2.89-.5-3.49a1.81,1.81,0,0,0-1.45-.54h-1l.24-2h13.48l-.24,2h-1a2.44,2.44,0,0,0-1.5.48A5.5,5.5,0,0,0,871,1235l-3,26.61c-.2,1.74,0,2.88.5,3.49a1.8,1.8,0,0,0,1.44.54h1l-.23,2H857.19l.23-2h.91a2.26,2.26,0,0,0,1.62-.54C860.62,1264.59,861.05,1263.45,861.25,1261.71Z"/><path class="cls-4" d="M908.38,1231.73a1.8,1.8,0,0,0-1.44-.54h-1l.23-2h9.57l-.23,2h-1a2.5,2.5,0,0,0-1.56.48,6,6,0,0,0-1.29,3.43l-3.74,32.62h-3l-2-3.43-17.62-28.47-3,25.89c-.2,1.74,0,2.82.51,3.43a1.8,1.8,0,0,0,1.44.54h1l-.24,2h-9.51l.24-2h.9a2.29,2.29,0,0,0,1.63-.54,5.52,5.52,0,0,0,1.3-3.49L882.6,1235c.21-1.8,0-2.89-.5-3.49a1.8,1.8,0,0,0-1.44-.54h-1l.24-2h9.21l.2.36,17,27.75,2.53-22.09c.2-1.74,0-2.83-.51-3.43Z"/><path class="cls-4" d="M940.2,1228.72c.72,0,1.5.06,2.28.12a28.09,28.09,0,0,1,4.61.72c.82.19,1.64.43,2.45.67l.23.06a.77.77,0,0,1,.35.12l.64.18a4.34,4.34,0,0,0,.71.12.8.8,0,0,0,.64-.36H954l-1.19,10.35h-2l-.11-.6c-.09-.3-.18-.6-.26-.91l-.05-.12c-.81-2.34-1.9-4.93-3.81-6.13a11.88,11.88,0,0,0-6.06-1.69,13.36,13.36,0,0,0-9.32,3.55c-3.23,3-5.34,7.71-5.83,13.06a24.18,24.18,0,0,0,.83,9.51,12.2,12.2,0,0,0,4.46,6.26,15.18,15.18,0,0,0,2.17,1.09,13.87,13.87,0,0,0,5.13.9,15.07,15.07,0,0,0,4-.54,11.25,11.25,0,0,0,3.18-1.45,14,14,0,0,0,2.75-2.47,16.53,16.53,0,0,0,1.41-1.8l.88-1.39,1.75.49-.27.78-2.38,6.56-.43.12c-1.25.42-2.51.84-3.19,1a36.37,36.37,0,0,1-6.7,1.21h-1.38c-3.31,0-8.07-.49-11.86-2.65A15.34,15.34,0,0,1,921,1261c-2.31-3.43-3.25-8.36-2.51-13.24A23.32,23.32,0,0,1,930.25,1231a21.53,21.53,0,0,1,10.27-2.41Z"/><path class="cls-4" d="M958.65,1265.2a5.52,5.52,0,0,0,1.3-3.49l3-26.61c.21-1.8,0-2.89-.5-3.49a1.8,1.8,0,0,0-1.44-.54h-1l.24-2h26.9l-.88,7.71h-2l-.18-.54c-.94-3.32-3.31-4.7-7.88-4.7H970.1l-1.6,14H973c3.73,0,5.62-.72,6.74-2.64l.45-.73h2l-1.11,9.76h-2l-.27-.79c-.71-2.22-2.36-3.07-6.15-3.07h-4.51l-2,17.16h7.22c3.13,0,5.25-.67,6.87-2.17a13.84,13.84,0,0,0,2.25-3.31l.22-.36h2l-1,8.42H955.77l.24-2h1a2.21,2.21,0,0,0,1.56-.54Z"/><path class="cls-4" d="M1012.36,1235.58l-.45-1.86.76-.3,11.11-4.52h1.8l-3.81,33.23a3.86,3.86,0,0,0,.58,2.83,2.53,2.53,0,0,0,1.81.54h1.08l-.24,2h-14.38l.23-2h1.09a2.53,2.53,0,0,0,1.75-.54,5.33,5.33,0,0,0,1.29-3.43l2.36-20.59a26.12,26.12,0,0,0,.19-4.27,1.92,1.92,0,0,0-.7-1.27,2.28,2.28,0,0,0-1.34-.36,7.48,7.48,0,0,0-2.21.42Z"/><path class="cls-4" d="M1035.4,1249.85a10.37,10.37,0,0,1-2.45-8.55,13.67,13.67,0,0,1,4.83-9,14.53,14.53,0,0,1,9.68-3.61,11.12,11.12,0,0,1,9.31,4.4c2.19,2.88,3,6.62,2.51,11.13A24.58,24.58,0,0,1,1051,1260a31.54,31.54,0,0,1-16.83,7.7l-.86.13-.13-2,.8-.18a25.87,25.87,0,0,0,10.79-5.36,25,25,0,0,0,7.06-10.11,12,12,0,0,1-2.48,1.69,12.66,12.66,0,0,1-5.63,1.32,10.61,10.61,0,0,1-8.22-3.37Zm6.51-16.37a10.23,10.23,0,0,0-2.5,6,11.28,11.28,0,0,0,1.26,7.4,5.41,5.41,0,0,0,4.87,2.71,6.39,6.39,0,0,0,4.92-2l.07-.06a10.21,10.21,0,0,0,2.29-5.78,11.25,11.25,0,0,0-1.37-7.52,5.55,5.55,0,0,0-4.89-3,6.14,6.14,0,0,0-4.7,2.17Z"/><path class="cls-4" d="M1067.06,1249.85a10.34,10.34,0,0,1-2.45-8.55,13.66,13.66,0,0,1,4.82-9,14.55,14.55,0,0,1,9.69-3.61,11.08,11.08,0,0,1,9.3,4.4c2.2,2.88,3,6.62,2.52,11.13a24.63,24.63,0,0,1-8.25,15.77,31.57,31.57,0,0,1-16.83,7.7l-.86.13-.13-2,.8-.18a25.87,25.87,0,0,0,10.79-5.36,25,25,0,0,0,7-10.11,11.74,11.74,0,0,1-2.48,1.69,12.63,12.63,0,0,1-5.63,1.32,10.63,10.63,0,0,1-8.22-3.37Zm6.51-16.37a10.23,10.23,0,0,0-2.5,6,11.28,11.28,0,0,0,1.26,7.4,5.41,5.41,0,0,0,4.87,2.71,6.41,6.41,0,0,0,4.92-2l.07-.06a10.13,10.13,0,0,0,2.28-5.78,11.19,11.19,0,0,0-1.36-7.52,5.56,5.56,0,0,0-4.89-3,6.16,6.16,0,0,0-4.71,2.17Z"/><path class="cls-4" d="M1098.71,1249.85a10.41,10.41,0,0,1-2.45-8.55,13.71,13.71,0,0,1,4.83-9,14.53,14.53,0,0,1,9.68-3.61,11.1,11.1,0,0,1,9.31,4.4c2.2,2.88,3,6.62,2.51,11.13a24.57,24.57,0,0,1-8.24,15.77,31.61,31.61,0,0,1-16.84,7.7l-.85.13-.14-2,.81-.18a25.83,25.83,0,0,0,10.78-5.36,24.94,24.94,0,0,0,7.06-10.11,11.74,11.74,0,0,1-2.48,1.69,12.63,12.63,0,0,1-5.63,1.32,10.61,10.61,0,0,1-8.22-3.37Zm6.52-16.37a10.23,10.23,0,0,0-2.5,6,11.28,11.28,0,0,0,1.26,7.4,5.39,5.39,0,0,0,4.86,2.71,6.41,6.41,0,0,0,4.93-2l.06-.06a10.14,10.14,0,0,0,2.29-5.78,11.25,11.25,0,0,0-1.36-7.52,5.57,5.57,0,0,0-4.9-3,6.15,6.15,0,0,0-4.7,2.17Z"/></svg>