<svg id="Layer_1" data-name="Layer 1" xmlns="http://www.w3.org/2000/svg" viewBox="0 0 2000 2000"><defs><style>.cls-1{fill:#e51d39;}.cls-2{fill:#e61c40;}.cls-3{fill:#fff;}</style></defs><title>EGZONI_SMALL_COLOR</title><path class="cls-1" d="M600.13,1134c-1,8.5-23.35,15.39-50,15.39s-47.43-6.89-46.45-15.39c.75-6.52,15.8-11.8,33.61-11.8,16.06,0,28.88,4.29,30.72,9.9l4.36-38q1.8.8,3.48,1.68c.56.3,1.1.59,1.64.9a.09.09,0,0,1,.07,0c.49.27,1,.56,1.46.84l.3.18,1.41.88c.51.33,1,.67,1.51,1s1,.7,1.47,1.05l.14.1,1.28,1,1.22,1,.27.23c.32.28.64.55.94.84l.33.29c.39.36.77.73,1.15,1.1s.66.67,1,1l.36.37c.32.35.65.71,1,1.07s.72.84,1.07,1.27.68.86,1,1.3.64.87.94,1.32.5.74.72,1.11c.11.16.21.32.31.49s.37.63.56,1,.48.87.71,1.31c.45.87.86,1.75,1.23,2.65l0,0c.36.9.69,1.81,1,2.73.14.46.28.93.4,1.4.19.7.35,1.42.48,2.14l.09.5q.15.84.24,1.68a6.07,6.07,0,0,1,.07.63c0,.28,0,.56.08.85s0,.68.05,1,0,.79,0,1.19c0,.23,0,.46,0,.7s0,.53,0,.8,0,.71-.06,1.07S600.18,1133.6,600.13,1134Z"/><path class="cls-1" d="M1207.82,1009.75a42.8,42.8,0,0,0-6.44-16.44,31,31,0,0,0-12.22-10.53,39.41,39.41,0,0,0-17.52-3.71,43.93,43.93,0,0,0-18.51,3.82,44.77,44.77,0,0,0-14.53,10.66,56,56,0,0,0-10.22,16.44,77.94,77.94,0,0,0-5.33,21.18,70.82,70.82,0,0,0,.46,21.3,42.46,42.46,0,0,0,6.47,16.33,31.12,31.12,0,0,0,12.1,10.53,39.14,39.14,0,0,0,17.63,3.7,45.07,45.07,0,0,0,18.37-3.7,43.14,43.14,0,0,0,14.64-10.53,56.26,56.26,0,0,0,10.21-16.33,77.86,77.86,0,0,0,5.33-21.3A72.06,72.06,0,0,0,1207.82,1009.75Zm0,0a42.8,42.8,0,0,0-6.44-16.44,31,31,0,0,0-12.22-10.53,39.41,39.41,0,0,0-17.52-3.71,43.93,43.93,0,0,0-18.51,3.82,44.77,44.77,0,0,0-14.53,10.66,56,56,0,0,0-10.22,16.44,77.94,77.94,0,0,0-5.33,21.18,70.82,70.82,0,0,0,.46,21.3,42.46,42.46,0,0,0,6.47,16.33,31.12,31.12,0,0,0,12.1,10.53,39.14,39.14,0,0,0,17.63,3.7,45.07,45.07,0,0,0,18.37-3.7,43.14,43.14,0,0,0,14.64-10.53,56.26,56.26,0,0,0,10.21-16.33,77.86,77.86,0,0,0,5.33-21.3A72.06,72.06,0,0,0,1207.82,1009.75ZM641,880.78,612,1134c-.79,6.85-5.74,16.25-24.89,22.15-10.62,3.27-24.21,5.07-38.28,5.07s-27.25-1.8-37.11-5.07c-17.8-5.9-20.59-15.3-19.81-22.15.56-4.91,3.84-14,19.44-19.45a70.56,70.56,0,0,1,12.44-3,96.2,96.2,0,0,1,14.92-1.14,91.4,91.4,0,0,1,14.67,1.14c1.76.29,3.47.63,5.11,1L561,1090q-3.45-.93-7.11-1.59c-1.07-.2-2.15-.37-3.24-.53h0l-1.54-.2-.29,0c-.48-.07-1-.12-1.44-.17h-.1l-1.63-.16-1.7-.13-1.43-.09-.48,0-1.56-.06-1.32,0c-.73,0-1.46,0-2.19,0-26,0-49.77,9.93-63.07,24.56-6.07,6.69-10,14.35-10.9,22.49-3,26,25.31,47.06,63.17,47.06h976.63l34.44-300.28Zm125.3,230.73H652.62L671,951.06H779.38l-3.48,30.33H703.66l-3.61,31.49h64.14l-3.4,29.64H696.65l-4.43,38.66h77.56ZM919,1106.19q-6.78,2.55-21.47,5.44t-35.75,2.9q-18.06,0-32.13-5.56a58.6,58.6,0,0,1-23.26-16.21q-9.21-10.65-13.1-26.16t-1.6-35.43Q794,1011,802.06,995.51a90.16,90.16,0,0,1,20.16-26.28,84.13,84.13,0,0,1,27.45-16.32,93.12,93.12,0,0,1,32-5.56A124.11,124.11,0,0,1,902,948.86a120.14,120.14,0,0,1,15.35,3.47,64.49,64.49,0,0,1,10.41,4c2.7,1.39,4.62,2.48,5.77,3.24l-13.74,28.94a84.3,84.3,0,0,0-16.24-6.82,68.62,68.62,0,0,0-20.61-2.9q-25.26,0-38.08,14t-15.63,38.32a75.13,75.13,0,0,0,.32,21.42,41.41,41.41,0,0,0,6.45,16.55,31.79,31.79,0,0,0,12.65,10.77c5.26,2.55,11.61,3.82,19,3.82,4,0,7.46-.08,10.33-.23a52.35,52.35,0,0,0,7.64-.93l6.4-55.8h36.11Zm145.26,5.32H938.11l2.46-21.53q7.84-11.81,18.88-26.28t22.91-29.17q11.88-14.7,24-28.49t22.39-24.65h-72l3.48-30.33h119.94l-2.87,25q-8.29,7.65-19.87,19.8t-24.13,26.51q-12.52,14.36-24.94,29.64T986,1081.18h81.77Zm171-44.1a87.63,87.63,0,0,1-19.79,26.16,80.21,80.21,0,0,1-27.16,15.86,97.49,97.49,0,0,1-32.22,5.32,84.77,84.77,0,0,1-30.42-5.32,61.16,61.16,0,0,1-23.65-15.86q-9.67-10.53-14.14-26.16t-2.09-36.24q2.35-20.6,10.64-36.24a90.49,90.49,0,0,1,20.49-26.27,83.58,83.58,0,0,1,27.3-16,92.86,92.86,0,0,1,31.06-5.32,85,85,0,0,1,30.42,5.32,60.5,60.5,0,0,1,23.63,16,64.93,64.93,0,0,1,14.13,26.27q4.46,15.63,2.1,36.24T1235.25,1067.41Zm165.7,44.1h-30.33q-12.36-27.54-27.33-54.41a470.74,470.74,0,0,0-32.62-50.7l-12.06,105.11H1263l18.4-160.45h29.4a236.67,236.67,0,0,1,14.75,18.75q8,11.12,16.15,23.74t16.1,26.16q8,13.53,14.84,26l10.86-94.7h35.89Zm69.7,0h-36.13l18.4-160.45h36.13Zm-269.27-118.2a31,31,0,0,0-12.22-10.53,39.41,39.41,0,0,0-17.52-3.71,43.93,43.93,0,0,0-18.51,3.82,44.77,44.77,0,0,0-14.53,10.66,56,56,0,0,0-10.22,16.44,77.94,77.94,0,0,0-5.33,21.18,70.82,70.82,0,0,0,.46,21.3,42.46,42.46,0,0,0,6.47,16.33,31.12,31.12,0,0,0,12.1,10.53,39.14,39.14,0,0,0,17.63,3.7,45.07,45.07,0,0,0,18.37-3.7,43.14,43.14,0,0,0,14.64-10.53,56.26,56.26,0,0,0,10.21-16.33,77.86,77.86,0,0,0,5.33-21.3,72.06,72.06,0,0,0-.44-21.42A42.8,42.8,0,0,0,1201.38,993.31Zm6.44,16.44a42.8,42.8,0,0,0-6.44-16.44,31,31,0,0,0-12.22-10.53,39.41,39.41,0,0,0-17.52-3.71,43.93,43.93,0,0,0-18.51,3.82,44.77,44.77,0,0,0-14.53,10.66,56,56,0,0,0-10.22,16.44,77.94,77.94,0,0,0-5.33,21.18,70.82,70.82,0,0,0,.46,21.3,42.46,42.46,0,0,0,6.47,16.33,31.12,31.12,0,0,0,12.1,10.53,39.14,39.14,0,0,0,17.63,3.7,45.07,45.07,0,0,0,18.37-3.7,43.14,43.14,0,0,0,14.64-10.53,56.26,56.26,0,0,0,10.21-16.33,77.86,77.86,0,0,0,5.33-21.3A72.06,72.06,0,0,0,1207.82,1009.75Zm0,0a42.8,42.8,0,0,0-6.44-16.44,31,31,0,0,0-12.22-10.53,39.41,39.41,0,0,0-17.52-3.71,43.93,43.93,0,0,0-18.51,3.82,44.77,44.77,0,0,0-14.53,10.66,56,56,0,0,0-10.22,16.44,77.94,77.94,0,0,0-5.33,21.18,70.82,70.82,0,0,0,.46,21.3,42.46,42.46,0,0,0,6.47,16.33,31.12,31.12,0,0,0,12.1,10.53,39.14,39.14,0,0,0,17.63,3.7,45.07,45.07,0,0,0,18.37-3.7,43.14,43.14,0,0,0,14.64-10.53,56.26,56.26,0,0,0,10.21-16.33,77.86,77.86,0,0,0,5.33-21.3A72.06,72.06,0,0,0,1207.82,1009.75Z"/><path class="cls-2" d="M630.86,866l-27.17,237-.61-.82-.61-.8c-.53-.68-1.09-1.35-1.66-2l-.69-.78c-.4-.44-.81-.88-1.23-1.31l-1-1a58.18,58.18,0,0,0-4.59-4l-.74-.58-.93-.71c-13.73-10.22-32.68-15.85-53.36-15.85s-40.92,5.63-57,15.85a77.55,77.55,0,0,0-14.78,12l27.18-237c3-26,36.1-47.06,74-47.06S633.85,840,630.86,866Z"/><path class="cls-3" d="M596.68,1115.38c.45.87.86,1.75,1.23,2.65A28.91,28.91,0,0,0,596.68,1115.38Zm1.25,2.7c.36.9.69,1.81,1,2.73C598.63,1119.89,598.3,1119,597.93,1118.08Z"/></svg>